<svg width="150" height="30" viewBox="0 0 538.9 94.301" xmlns="http://www.w3.org/2000/svg">
  <!--Text style: amaranth-->
  <g id="svgGroup" stroke-linecap="round" fill-rule="evenodd" font-size="9pt" stroke="#000" stroke-width="0.25mm"
     fill="#000" style="stroke:#000;stroke-width:0.25mm;fill:#000">
    <path
      d="M 149.5 90.1 L 152.3 81.4 Q 153.8 82 155.5 82.65 Q 157.2 83.3 159.1 83.9 Q 161 84.5 162.95 84.9 Q 164.9 85.3 166.8 85.3 Q 172.4 85.3 174.9 81.95 Q 177.4 78.6 177.4 73.3 A 26.319 26.319 0 0 0 176.057 65.114 A 31.38 31.38 0 0 0 175.2 62.8 A 18.259 18.259 0 0 1 173.419 66.667 A 13.575 13.575 0 0 1 169.85 70.55 Q 166.642 72.879 161.619 73.161 A 25.311 25.311 0 0 1 160.2 73.2 A 21.237 21.237 0 0 1 156.197 72.841 A 15.624 15.624 0 0 1 152.05 71.45 Q 148.6 69.7 146.3 66.45 A 20.265 20.265 0 0 1 143.992 62.115 A 26.556 26.556 0 0 1 142.9 58.6 A 39.285 39.285 0 0 1 142.011 53.109 A 50.754 50.754 0 0 1 141.8 48.4 A 32.568 32.568 0 0 1 142.554 41.285 A 28.253 28.253 0 0 1 143.55 37.85 A 26.204 26.204 0 0 1 146.534 31.942 A 23.158 23.158 0 0 1 148.45 29.5 Q 151.6 26 156 24 A 22.525 22.525 0 0 1 163.744 22.07 A 26.829 26.829 0 0 1 165.7 22 A 43.903 43.903 0 0 1 168.796 22.114 A 54.304 54.304 0 0 1 170.85 22.3 Q 173.6 22.6 176.25 23.05 A 129.764 129.764 0 0 1 179.752 23.692 A 109.526 109.526 0 0 1 181.25 24 Q 183.6 24.5 185.3 24.9 L 184.8 52.4 Q 184.7 55.4 185.15 57.9 Q 185.6 60.4 186.2 62.85 Q 186.8 65.3 187.3 67.8 A 25.245 25.245 0 0 1 187.704 70.771 A 32.275 32.275 0 0 1 187.8 73.3 A 33.025 33.025 0 0 1 187.299 79.258 Q 186.7 82.517 185.386 85.061 A 15.313 15.313 0 0 1 182.4 89.1 A 18.037 18.037 0 0 1 173.676 93.686 A 26.585 26.585 0 0 1 167.8 94.3 Q 164.8 94.3 161.8 93.75 A 71.914 71.914 0 0 1 158.396 93.044 A 58.01 58.01 0 0 1 156.25 92.5 Q 154.298 91.964 152.785 91.428 A 31.086 31.086 0 0 1 151.9 91.1 Q 150.1 90.4 149.5 90.1 Z M 85.6 47.2 L 85.6 22.8 L 97 22.8 L 97 48.5 Q 97 54.5 97.75 58.55 A 65.038 65.038 0 0 0 98.283 61.151 Q 98.546 62.305 98.826 63.292 A 27.239 27.239 0 0 0 99.4 65.1 Q 100.179 67.223 101.057 68.695 A 11.636 11.636 0 0 0 101.8 69.8 L 92.9 73.4 A 10.574 10.574 0 0 1 91.647 72.017 A 14.17 14.17 0 0 1 90.7 70.6 Q 90.088 69.528 89.446 68.075 A 43.961 43.961 0 0 1 89.05 67.15 Q 88.2 65.1 87.9 62.3 A 20.303 20.303 0 0 1 85.259 66.638 A 15.238 15.238 0 0 1 80.3 70.7 Q 75.4 73.2 70.1 73.2 Q 62.2 73.2 58.85 68.6 A 16.002 16.002 0 0 1 56.459 63.589 Q 55.5 60.281 55.5 56 L 55.5 22.8 L 66.9 22.8 L 66.9 55.8 A 19.204 19.204 0 0 0 67.046 58.249 Q 67.369 60.75 68.4 62.4 A 4.862 4.862 0 0 0 71.455 64.566 Q 72.318 64.785 73.36 64.799 A 10.616 10.616 0 0 0 73.5 64.8 Q 75.7 64.8 77.85 63.55 A 12.38 12.38 0 0 0 80.47 61.487 A 15.776 15.776 0 0 0 81.75 60 Q 83.5 57.7 84.55 54.45 A 21.426 21.426 0 0 0 85.44 50.211 A 27.377 27.377 0 0 0 85.6 47.2 Z M 481.3 72.6 L 470 72.6 L 470 40.3 A 19.196 19.196 0 0 0 469.823 37.607 Q 469.484 35.223 468.5 33.55 Q 467 31 463.4 31 A 9.281 9.281 0 0 0 459.101 32.071 A 10.862 10.862 0 0 0 458.95 32.15 A 11.361 11.361 0 0 0 456.206 34.228 A 14.164 14.164 0 0 0 455.1 35.5 A 16.055 16.055 0 0 0 453.352 38.361 A 21.124 21.124 0 0 0 452.35 40.85 A 20.214 20.214 0 0 0 451.46 44.968 A 25.956 25.956 0 0 0 451.3 47.9 L 451.3 72.6 L 439.9 72.6 L 439.9 47.4 A 74.622 74.622 0 0 0 439.789 43.195 Q 439.678 41.232 439.456 39.54 A 34.392 34.392 0 0 0 439.1 37.35 A 70.443 70.443 0 0 0 438.538 34.749 Q 438.264 33.595 437.98 32.608 A 29.383 29.383 0 0 0 437.4 30.8 Q 436.3 27.9 435 26.1 L 444 22.5 Q 444.934 23.527 445.867 24.99 A 26.273 26.273 0 0 1 446 25.2 Q 446.8 26.6 447.6 28.65 A 23.508 23.508 0 0 1 448.385 31.057 A 31.052 31.052 0 0 1 448.9 33.3 A 20.498 20.498 0 0 1 451.503 28.834 A 15.524 15.524 0 0 1 456.4 24.65 Q 461.3 22 466.7 22 A 20.04 20.04 0 0 1 470.897 22.41 Q 473.408 22.948 475.273 24.194 A 10.34 10.34 0 0 1 477.85 26.65 A 16.282 16.282 0 0 1 480.41 32.015 Q 481.3 35.188 481.3 39.2 L 481.3 72.6 Z M 538.9 69.8 L 530 73.4 A 0.566 0.566 0 0 1 529.898 73.328 Q 529.658 73.127 529.1 72.45 Q 528.63 71.879 528.092 71.014 A 25.915 25.915 0 0 1 527.55 70.1 A 17.861 17.861 0 0 1 526.868 68.757 Q 526.56 68.088 526.259 67.315 A 34.657 34.657 0 0 1 525.9 66.35 Q 525.1 64.1 524.9 61.1 A 22.941 22.941 0 0 1 523.337 65.185 Q 521.794 68.244 519.45 70.15 Q 516.139 72.843 510.764 73.158 A 24.984 24.984 0 0 1 509.3 73.2 A 21.237 21.237 0 0 1 505.297 72.841 A 15.624 15.624 0 0 1 501.15 71.45 Q 497.7 69.7 495.4 66.45 A 20.265 20.265 0 0 1 493.092 62.115 A 26.556 26.556 0 0 1 492 58.6 A 39.285 39.285 0 0 1 491.111 53.109 A 50.754 50.754 0 0 1 490.9 48.4 A 32.568 32.568 0 0 1 491.654 41.285 A 28.253 28.253 0 0 1 492.65 37.85 A 26.204 26.204 0 0 1 495.634 31.942 A 23.158 23.158 0 0 1 497.55 29.5 Q 500.7 26 505.1 24 A 22.525 22.525 0 0 1 512.844 22.07 A 26.829 26.829 0 0 1 514.8 22 Q 516.6 22 518.65 22.2 Q 520.7 22.4 522.7 22.7 L 522.7 0.1 L 534.1 2.1 L 534.1 48.5 A 85.038 85.038 0 0 0 534.19 52.548 Q 534.352 55.92 534.8 58.45 Q 535.5 62.4 536.4 64.85 A 33.609 33.609 0 0 0 536.894 66.121 Q 537.366 67.261 537.793 67.991 A 6.943 6.943 0 0 0 538.05 68.4 A 32.717 32.717 0 0 1 538.308 68.784 Q 538.819 69.556 538.9 69.8 Z M 0 72.6 L 0 4.9 Q 0.679 4.9 3.05 4.853 A 868.153 868.153 0 0 0 3.2 4.85 Q 5.69 4.8 8.776 4.8 A 245.122 245.122 0 0 1 8.8 4.8 Q 11.9 4.8 15 4.75 Q 18.1 4.7 20.1 4.7 Q 31.7 4.7 37.75 9.3 A 14.929 14.929 0 0 1 43.705 20.259 A 21.48 21.48 0 0 1 43.8 22.3 Q 43.8 27.2 41.1 31.1 A 18.527 18.527 0 0 1 35.935 36.063 A 23.246 23.246 0 0 1 33.6 37.4 A 24.549 24.549 0 0 1 38.155 39.679 A 17.634 17.634 0 0 1 42.75 43.9 Q 45.9 48.1 45.9 53.6 A 18.383 18.383 0 0 1 44.611 60.595 A 16.999 16.999 0 0 1 39.4 67.45 Q 32.9 72.7 19.7 72.7 L 13.9 72.7 Q 10.8 72.7 8 72.65 A 349.156 349.156 0 0 0 5.674 72.616 Q 4.613 72.604 3.668 72.601 A 196.917 196.917 0 0 0 3.05 72.6 L 0 72.6 Z M 308.1 72.6 L 308.1 4.9 Q 308.779 4.9 311.15 4.853 A 868.153 868.153 0 0 0 311.3 4.85 Q 313.79 4.8 316.876 4.8 A 245.122 245.122 0 0 1 316.9 4.8 Q 320 4.8 323.1 4.75 Q 326.2 4.7 328.2 4.7 Q 339.8 4.7 345.85 9.3 A 14.929 14.929 0 0 1 351.805 20.259 A 21.48 21.48 0 0 1 351.9 22.3 Q 351.9 27.2 349.2 31.1 A 18.527 18.527 0 0 1 344.035 36.063 A 23.246 23.246 0 0 1 341.7 37.4 A 24.549 24.549 0 0 1 346.255 39.679 A 17.634 17.634 0 0 1 350.85 43.9 Q 354 48.1 354 53.6 A 18.383 18.383 0 0 1 352.711 60.595 A 16.999 16.999 0 0 1 347.5 67.45 Q 341 72.7 327.8 72.7 L 322 72.7 Q 318.9 72.7 316.1 72.65 A 349.156 349.156 0 0 0 313.774 72.616 Q 312.713 72.604 311.768 72.601 A 196.917 196.917 0 0 0 311.15 72.6 L 308.1 72.6 Z M 232.3 61.6 L 235.3 68.7 Q 232.7 70 229.7 71 A 39.936 39.936 0 0 1 227.087 71.8 Q 225.704 72.175 224.148 72.506 A 66.039 66.039 0 0 1 223.7 72.6 A 34.595 34.595 0 0 1 218.143 73.267 A 39.876 39.876 0 0 1 216.5 73.3 A 32.194 32.194 0 0 1 212.068 73.011 Q 209.698 72.681 207.694 71.975 A 18.166 18.166 0 0 1 206.6 71.55 A 17.88 17.88 0 0 1 201.865 68.629 A 16.207 16.207 0 0 1 199.9 66.6 A 19.295 19.295 0 0 1 196.886 61.328 A 23.786 23.786 0 0 1 196.1 58.9 A 34.788 34.788 0 0 1 195.13 53.521 A 44.816 44.816 0 0 1 194.9 48.9 A 41.196 41.196 0 0 1 195.3 43.017 A 29.81 29.81 0 0 1 196.75 37.1 A 26.975 26.975 0 0 1 199.192 32.015 A 22.012 22.012 0 0 1 201.85 28.55 Q 205.1 25.1 209.5 23.35 A 25.08 25.08 0 0 1 217.736 21.627 A 28.991 28.991 0 0 1 219 21.6 A 30.722 30.722 0 0 1 222.372 21.775 Q 224.01 21.956 225.418 22.325 A 16.238 16.238 0 0 1 226.65 22.7 A 16.617 16.617 0 0 1 229.35 23.907 A 12.365 12.365 0 0 1 231.8 25.7 Q 233.8 27.6 234.75 30.2 A 15.869 15.869 0 0 1 235.677 34.872 A 18.381 18.381 0 0 1 235.7 35.8 A 12.813 12.813 0 0 1 233.831 42.434 A 15.288 15.288 0 0 1 233.7 42.65 A 16.865 16.865 0 0 1 230.419 46.486 A 21.911 21.911 0 0 1 227.95 48.35 A 27.553 27.553 0 0 1 223.528 50.671 A 37.623 37.623 0 0 1 218.9 52.25 A 42.399 42.399 0 0 1 212.573 53.449 A 56.007 56.007 0 0 1 207 53.8 A 25.655 25.655 0 0 0 207.719 57.372 A 23.012 23.012 0 0 0 207.95 58.15 A 11.28 11.28 0 0 0 209.228 60.891 A 10.228 10.228 0 0 0 209.85 61.75 A 8.396 8.396 0 0 0 212.376 63.84 A 10.148 10.148 0 0 0 213.1 64.2 Q 214.748 64.942 217.076 65.072 A 18.313 18.313 0 0 0 218.1 65.1 A 22.031 22.031 0 0 0 220.893 64.914 A 27.546 27.546 0 0 0 222.8 64.6 Q 225.3 64.1 227.4 63.4 Q 229.9 62.6 232.3 61.6 Z M 426.1 61.6 L 429.1 68.7 Q 426.5 70 423.5 71 A 39.936 39.936 0 0 1 420.887 71.8 Q 419.504 72.175 417.948 72.506 A 66.039 66.039 0 0 1 417.5 72.6 A 34.595 34.595 0 0 1 411.943 73.267 A 39.876 39.876 0 0 1 410.3 73.3 A 32.194 32.194 0 0 1 405.868 73.011 Q 403.498 72.681 401.494 71.975 A 18.166 18.166 0 0 1 400.4 71.55 A 17.88 17.88 0 0 1 395.665 68.629 A 16.207 16.207 0 0 1 393.7 66.6 A 19.295 19.295 0 0 1 390.686 61.328 A 23.786 23.786 0 0 1 389.9 58.9 A 34.788 34.788 0 0 1 388.93 53.521 A 44.816 44.816 0 0 1 388.7 48.9 A 41.196 41.196 0 0 1 389.1 43.017 A 29.81 29.81 0 0 1 390.55 37.1 A 26.975 26.975 0 0 1 392.992 32.015 A 22.012 22.012 0 0 1 395.65 28.55 Q 398.9 25.1 403.3 23.35 A 25.08 25.08 0 0 1 411.536 21.627 A 28.991 28.991 0 0 1 412.8 21.6 A 30.722 30.722 0 0 1 416.172 21.775 Q 417.81 21.956 419.218 22.325 A 16.238 16.238 0 0 1 420.45 22.7 A 16.617 16.617 0 0 1 423.15 23.907 A 12.365 12.365 0 0 1 425.6 25.7 Q 427.6 27.6 428.55 30.2 A 15.869 15.869 0 0 1 429.477 34.872 A 18.381 18.381 0 0 1 429.5 35.8 A 12.813 12.813 0 0 1 427.631 42.434 A 15.288 15.288 0 0 1 427.5 42.65 A 16.865 16.865 0 0 1 424.219 46.486 A 21.911 21.911 0 0 1 421.75 48.35 A 27.553 27.553 0 0 1 417.328 50.671 A 37.623 37.623 0 0 1 412.7 52.25 A 42.399 42.399 0 0 1 406.373 53.449 A 56.007 56.007 0 0 1 400.8 53.8 A 25.655 25.655 0 0 0 401.519 57.372 A 23.012 23.012 0 0 0 401.75 58.15 A 11.28 11.28 0 0 0 403.028 60.891 A 10.228 10.228 0 0 0 403.65 61.75 A 8.396 8.396 0 0 0 406.176 63.84 A 10.148 10.148 0 0 0 406.9 64.2 Q 408.548 64.942 410.876 65.072 A 18.313 18.313 0 0 0 411.9 65.1 A 22.031 22.031 0 0 0 414.693 64.914 A 27.546 27.546 0 0 0 416.6 64.6 Q 419.1 64.1 421.2 63.4 Q 423.7 62.6 426.1 61.6 Z M 363.6 61.8 L 363.6 2.1 L 375 0 L 375 60.7 Q 375 62.62 375.627 63.565 A 2.171 2.171 0 0 0 375.9 63.9 A 2.894 2.894 0 0 0 377.145 64.622 Q 377.743 64.8 378.5 64.8 Q 379.5 64.8 380.45 64.7 A 13.914 13.914 0 0 0 381.525 64.546 A 11.154 11.154 0 0 0 382.2 64.4 A 33.619 33.619 0 0 0 383 64.212 Q 383.375 64.12 383.706 64.027 A 19.803 19.803 0 0 0 383.8 64 L 385.2 71.2 Q 383.9 71.7 382.3 72.1 A 18.273 18.273 0 0 1 380.979 72.421 Q 380.069 72.609 379 72.75 A 27.869 27.869 0 0 1 377.042 72.934 Q 376.076 72.992 375.007 72.999 A 45.148 45.148 0 0 1 374.7 73 A 16.368 16.368 0 0 1 371.58 72.722 Q 369.784 72.373 368.406 71.584 A 7.953 7.953 0 0 1 366.3 69.85 A 11.016 11.016 0 0 1 363.838 64.555 A 15.296 15.296 0 0 1 363.6 61.8 Z M 123.2 45.2 L 123.2 72.6 L 111.8 72.6 L 111.8 47.4 A 74.622 74.622 0 0 0 111.689 43.195 Q 111.578 41.232 111.356 39.54 A 34.392 34.392 0 0 0 111 37.35 A 70.443 70.443 0 0 0 110.438 34.749 Q 110.164 33.595 109.88 32.608 A 29.383 29.383 0 0 0 109.3 30.8 Q 108.2 27.9 106.9 26.1 L 115.9 22.5 A 20.668 20.668 0 0 1 116.707 23.558 Q 117.238 24.3 117.8 25.2 A 25.213 25.213 0 0 1 118.55 26.622 Q 118.869 27.274 119.188 28.004 A 41.886 41.886 0 0 1 119.4 28.5 A 18.569 18.569 0 0 1 120.084 30.435 Q 120.38 31.434 120.615 32.573 A 31.885 31.885 0 0 1 120.7 33 Q 122.7 27.2 126.5 24.65 Q 130.3 22.1 135.1 22.1 A 17.021 17.021 0 0 1 138.055 22.348 A 14.653 14.653 0 0 1 139.4 22.65 Q 141.376 23.193 141.302 23.2 A 0.024 0.024 0 0 1 141.3 23.2 L 138.1 34.3 A 0.012 0.012 0 0 0 138.106 34.299 Q 138.139 34.278 137.234 33.876 A 75.649 75.649 0 0 0 136.95 33.75 Q 135.7 33.2 133.2 33.2 A 7.662 7.662 0 0 0 130.444 33.728 A 9.408 9.408 0 0 0 129.6 34.1 Q 127.8 35 126.4 36.55 A 11.955 11.955 0 0 0 124.712 38.987 A 14.735 14.735 0 0 0 124.1 40.3 A 12.074 12.074 0 0 0 123.288 43.561 A 14.907 14.907 0 0 0 123.2 45.2 Z M 257.5 45.2 L 257.5 72.6 L 246.1 72.6 L 246.1 47.4 A 74.622 74.622 0 0 0 245.989 43.195 Q 245.878 41.232 245.656 39.54 A 34.392 34.392 0 0 0 245.3 37.35 A 70.443 70.443 0 0 0 244.738 34.749 Q 244.464 33.595 244.18 32.608 A 29.383 29.383 0 0 0 243.6 30.8 Q 242.5 27.9 241.2 26.1 L 250.2 22.5 A 20.668 20.668 0 0 1 251.007 23.558 Q 251.538 24.3 252.1 25.2 A 25.213 25.213 0 0 1 252.85 26.622 Q 253.169 27.274 253.488 28.004 A 41.886 41.886 0 0 1 253.7 28.5 A 18.569 18.569 0 0 1 254.384 30.435 Q 254.68 31.434 254.915 32.573 A 31.885 31.885 0 0 1 255 33 Q 257 27.2 260.8 24.65 Q 264.6 22.1 269.4 22.1 A 17.021 17.021 0 0 1 272.355 22.348 A 14.653 14.653 0 0 1 273.7 22.65 Q 275.676 23.193 275.602 23.2 A 0.024 0.024 0 0 1 275.6 23.2 L 272.4 34.3 A 0.012 0.012 0 0 0 272.406 34.299 Q 272.439 34.278 271.534 33.876 A 75.649 75.649 0 0 0 271.25 33.75 Q 270 33.2 267.5 33.2 A 7.662 7.662 0 0 0 264.744 33.728 A 9.408 9.408 0 0 0 263.9 34.1 Q 262.1 35 260.7 36.55 A 11.955 11.955 0 0 0 259.012 38.987 A 14.735 14.735 0 0 0 258.4 40.3 A 12.074 12.074 0 0 0 257.588 43.561 A 14.907 14.907 0 0 0 257.5 45.2 Z M 173.6 46.3 L 173.6 31.1 Q 172.834 30.87 171.483 30.582 A 70.983 70.983 0 0 0 170.6 30.4 A 22.734 22.734 0 0 0 168.927 30.127 Q 168.06 30.02 167.284 30.003 A 13.228 13.228 0 0 0 167 30 Q 163.2 30 160.75 31.3 Q 158.3 32.6 156.8 34.9 A 13.553 13.553 0 0 0 155.336 37.949 A 17.726 17.726 0 0 0 154.7 40.4 A 34.622 34.622 0 0 0 154.199 44.412 A 43.722 43.722 0 0 0 154.1 47.4 Q 154.1 50.9 154.3 54.1 Q 154.5 57.3 155.35 59.8 A 11.127 11.127 0 0 0 156.237 61.787 A 8.066 8.066 0 0 0 157.8 63.75 A 5.41 5.41 0 0 0 160.23 64.996 Q 161.088 65.2 162.1 65.2 A 6.971 6.971 0 0 0 166.146 63.897 A 8.81 8.81 0 0 0 166.55 63.6 A 13.849 13.849 0 0 0 168.826 61.33 A 18.183 18.183 0 0 0 170.2 59.35 A 21.636 21.636 0 0 0 172.034 55.451 A 26.438 26.438 0 0 0 172.7 53.3 Q 173.6 49.9 173.6 46.3 Z M 522.7 45.5 L 522.7 31.1 Q 521.934 30.87 520.583 30.582 A 70.983 70.983 0 0 0 519.7 30.4 A 22.734 22.734 0 0 0 518.027 30.127 Q 517.16 30.02 516.384 30.003 A 13.228 13.228 0 0 0 516.1 30 Q 512.3 30 509.85 31.3 Q 507.4 32.6 505.9 34.9 A 13.553 13.553 0 0 0 504.436 37.949 A 17.726 17.726 0 0 0 503.8 40.4 A 34.622 34.622 0 0 0 503.299 44.412 A 43.722 43.722 0 0 0 503.2 47.4 Q 503.2 50.9 503.4 54.1 Q 503.6 57.3 504.45 59.75 A 10.913 10.913 0 0 0 505.374 61.765 A 8.154 8.154 0 0 0 506.9 63.65 A 5.41 5.41 0 0 0 509.33 64.896 Q 510.188 65.1 511.2 65.1 A 7.042 7.042 0 0 0 515.403 63.704 A 8.932 8.932 0 0 0 515.8 63.4 Q 517.9 61.7 519.45 58.95 A 22.777 22.777 0 0 0 521.183 55.018 A 27.972 27.972 0 0 0 521.85 52.7 Q 522.7 49.2 522.7 45.5 Z M 11.9 42.3 L 11.9 64.1 L 20.5 64.1 A 23.881 23.881 0 0 0 23.976 63.865 Q 28.118 63.254 30.25 61.05 A 10.382 10.382 0 0 0 33.174 54.249 A 13.698 13.698 0 0 0 33.2 53.4 Q 33.2 51.3 32.55 49.3 Q 31.9 47.3 30.3 45.7 A 9.694 9.694 0 0 0 28.304 44.183 Q 27.292 43.595 26.05 43.15 A 14.513 14.513 0 0 0 23.674 42.535 Q 21.775 42.2 19.4 42.2 L 15.15 42.2 Q 13.56 42.2 12.303 42.274 A 31.919 31.919 0 0 0 11.9 42.3 Z M 320 42.3 L 320 64.1 L 328.6 64.1 A 23.881 23.881 0 0 0 332.076 63.865 Q 336.218 63.254 338.35 61.05 A 10.382 10.382 0 0 0 341.274 54.249 A 13.698 13.698 0 0 0 341.3 53.4 Q 341.3 51.3 340.65 49.3 Q 340 47.3 338.4 45.7 A 9.694 9.694 0 0 0 336.404 44.183 Q 335.392 43.595 334.15 43.15 A 14.513 14.513 0 0 0 331.774 42.535 Q 329.875 42.2 327.5 42.2 L 323.25 42.2 Q 321.66 42.2 320.403 42.274 A 31.919 31.919 0 0 0 320 42.3 Z M 11.9 13.3 L 11.9 33.7 L 19.6 33.7 Q 25.9 33.7 28.6 30.8 A 9.983 9.983 0 0 0 31.297 23.961 A 12.88 12.88 0 0 0 31.3 23.7 Q 31.3 21.8 30.7 19.9 Q 30.1 18 28.65 16.5 A 8.743 8.743 0 0 0 26.827 15.076 Q 25.898 14.522 24.75 14.1 A 13.156 13.156 0 0 0 22.553 13.517 Q 20.797 13.2 18.6 13.2 L 14.75 13.2 A 46.495 46.495 0 0 0 13.576 13.214 Q 12.65 13.238 11.9 13.3 Z M 320 13.3 L 320 33.7 L 327.7 33.7 Q 334 33.7 336.7 30.8 A 9.983 9.983 0 0 0 339.397 23.961 A 12.88 12.88 0 0 0 339.4 23.7 Q 339.4 21.8 338.8 19.9 Q 338.2 18 336.75 16.5 A 8.743 8.743 0 0 0 334.927 15.076 Q 333.998 14.522 332.85 14.1 A 13.156 13.156 0 0 0 330.653 13.517 Q 328.897 13.2 326.7 13.2 L 322.85 13.2 A 46.495 46.495 0 0 0 321.676 13.214 Q 320.75 13.238 320 13.3 Z M 212.815 30.834 A 7.287 7.287 0 0 0 212.65 30.95 Q 210.5 32.5 209.2 34.95 A 17.888 17.888 0 0 0 207.719 38.782 A 21.414 21.414 0 0 0 207.35 40.45 Q 206.8 43.5 206.7 46.6 Q 210.469 46.443 213.344 45.762 A 21.973 21.973 0 0 0 214.85 45.35 A 24.17 24.17 0 0 0 217.343 44.424 Q 218.566 43.887 219.559 43.257 A 12.764 12.764 0 0 0 220.3 42.75 A 12.893 12.893 0 0 0 221.816 41.449 Q 222.604 40.653 223.124 39.798 A 7.511 7.511 0 0 0 223.35 39.4 A 8.441 8.441 0 0 0 224.091 37.487 A 7.004 7.004 0 0 0 224.3 35.8 A 8.037 8.037 0 0 0 224.061 33.787 A 5.788 5.788 0 0 0 222.6 31.15 A 5.683 5.683 0 0 0 219.212 29.475 A 7.972 7.972 0 0 0 218.1 29.4 Q 214.926 29.4 212.815 30.834 Z M 406.615 30.834 A 7.287 7.287 0 0 0 406.45 30.95 Q 404.3 32.5 403 34.95 A 17.888 17.888 0 0 0 401.519 38.782 A 21.414 21.414 0 0 0 401.15 40.45 Q 400.6 43.5 400.5 46.6 Q 404.269 46.443 407.144 45.762 A 21.973 21.973 0 0 0 408.65 45.35 A 24.17 24.17 0 0 0 411.143 44.424 Q 412.366 43.887 413.359 43.257 A 12.764 12.764 0 0 0 414.1 42.75 A 12.893 12.893 0 0 0 415.616 41.449 Q 416.404 40.653 416.924 39.798 A 7.511 7.511 0 0 0 417.15 39.4 A 8.441 8.441 0 0 0 417.891 37.487 A 7.004 7.004 0 0 0 418.1 35.8 A 8.037 8.037 0 0 0 417.861 33.787 A 5.788 5.788 0 0 0 416.4 31.15 A 5.683 5.683 0 0 0 413.012 29.475 A 7.972 7.972 0 0 0 411.9 29.4 Q 408.726 29.4 406.615 30.834 Z"
      vector-effect="non-scaling-stroke"/>
  </g>
</svg>
